<svg xmlns="http://www.w3.org/2000/svg" xmlns:xlink="http://www.w3.org/1999/xlink" viewBox="0 0 100 100"><defs><style>.cls-1{isolation:isolate;}.cls-2{fill:#f58718;}.cls-3{fill:#b5441b;}.cls-4{fill:#f16824;}.cls-5{fill:#333;}.cls-6{fill:#c8ef22;}.cls-7{fill:#00b0c7;}.cls-10,.cls-11,.cls-12,.cls-13,.cls-8,.cls-9{mix-blend-mode:color-burn;}.cls-8{fill:url(#linear-gradient);}.cls-9{fill:url(#linear-gradient-2);}.cls-10{fill:url(#linear-gradient-3);}.cls-11{fill:url(#linear-gradient-4);}.cls-12{fill:url(#linear-gradient-5);}.cls-13{fill:url(#linear-gradient-6);}.cls-14{fill:#e6e6e6;}</style><linearGradient id="linear-gradient" x1="27.28" y1="39.34" x2="43.49" y2="48.69" gradientTransform="matrix(-1, 0, 0, 1, 100.07, 0)" gradientUnits="userSpaceOnUse"><stop offset="0" stop-color="#fff"/><stop offset="0.28" stop-color="#fbfbfb"/><stop offset="0.56" stop-color="#eee"/><stop offset="0.85" stop-color="#dadada"/><stop offset="1" stop-color="#ccc"/></linearGradient><linearGradient id="linear-gradient-2" x1="46.74" y1="23.15" x2="73.59" y2="50" gradientTransform="matrix(-1, 0, 0, 1, 100.07, 0)" gradientUnits="userSpaceOnUse"><stop offset="0" stop-color="#fff"/><stop offset="0.22" stop-color="#fbfbfb"/><stop offset="0.46" stop-color="#eee"/><stop offset="0.69" stop-color="#dadada"/><stop offset="0.93" stop-color="#bdbdbd"/><stop offset="1" stop-color="#b3b3b3"/></linearGradient><linearGradient id="linear-gradient-3" x1="62.55" y1="71.63" x2="45.6" y2="42.26" gradientTransform="matrix(-1, 0, 0, 1, 100.07, 0)" gradientUnits="userSpaceOnUse"><stop offset="0" stop-color="#b3b3b3"/><stop offset="0.07" stop-color="#bdbdbd"/><stop offset="0.31" stop-color="#dadada"/><stop offset="0.54" stop-color="#eee"/><stop offset="0.78" stop-color="#fbfbfb"/><stop offset="1" stop-color="#fff"/></linearGradient><linearGradient id="linear-gradient-4" x1="62.35" y1="67.24" x2="62.35" y2="37.5" gradientTransform="matrix(-1, 0, 0, 1, 100.07, 0)" gradientUnits="userSpaceOnUse"><stop offset="0" stop-color="#fff"/><stop offset="0.48" stop-color="#fdfdfd"/><stop offset="0.65" stop-color="#f6f6f6"/><stop offset="0.77" stop-color="#ebebeb"/><stop offset="0.87" stop-color="#dadada"/><stop offset="0.95" stop-color="#c4c4c4"/><stop offset="1" stop-color="#b3b3b3"/></linearGradient><linearGradient id="linear-gradient-5" x1="55.05" y1="33.95" x2="50.88" y2="26.73" gradientTransform="matrix(-1, 0, 0, 1, 100.07, 0)" gradientUnits="userSpaceOnUse"><stop offset="0" stop-color="#fff"/><stop offset="0.21" stop-color="#f6f6f6"/><stop offset="0.54" stop-color="#dedede"/><stop offset="0.97" stop-color="#b6b6b6"/><stop offset="1" stop-color="#b3b3b3"/></linearGradient><linearGradient id="linear-gradient-6" x1="39.55" y1="63.88" x2="39.55" y2="37.89" gradientTransform="matrix(-1, 0, 0, 1, 100.07, 0)" gradientUnits="userSpaceOnUse"><stop offset="0" stop-color="#fff"/><stop offset="0.51" stop-color="#fdfdfd"/><stop offset="0.7" stop-color="#f6f6f6"/><stop offset="0.83" stop-color="#ebebeb"/><stop offset="0.94" stop-color="#dadada"/><stop offset="1" stop-color="#ccc"/></linearGradient></defs><title>birdLogo</title><g class="cls-1"><g id="Layer_1" data-name="Layer 1"><path class="cls-2" d="M50.35,37.9a25,25,0,0,1,5.51-12.23A25,25,0,0,1,71.1,36.48,25.08,25.08,0,0,0,74,57.3a25,25,0,0,1-3.12,6.58c0-.46,0-.92,0-1.38A25,25,0,0,0,50.35,37.9Z"/><path class="cls-3" d="M71.1,36.48a24.87,24.87,0,0,1,4,13.52A25.13,25.13,0,0,1,74,57.3,25.08,25.08,0,0,1,71.1,36.48Z"/><path class="cls-4" d="M70.87,63.88A25,25,0,0,0,50.15,39.77h0q.07-.95.21-1.86A25,25,0,0,1,70.9,62.5q0,.69,0,1.38Z"/><path class="cls-5" d="M31.36,33.42a25.07,25.07,0,0,1,24.5-7.75A25,25,0,0,0,50.35,37.9a22,22,0,0,0-3.06-.36c-.46,0-.92,0-1.39,0A25,25,0,0,0,25.11,48.62,24.9,24.9,0,0,1,31.36,33.42Z"/><path class="cls-5" d="M32,67.24a25,25,0,0,0,18.4-24.11,26.58,26.58,0,0,0-.22-3.36,25,25,0,0,1-9.22,33.5A24.89,24.89,0,0,1,32,67.24Z"/><path class="cls-6" d="M25.11,48.62A25,25,0,0,1,45.9,37.5c.47,0,.93,0,1.39,0s1.05.07,1.57.13l.94.13.55.1c-.09.6-.16,1.22-.21,1.85h0a26.58,26.58,0,0,1,.22,3.36A25,25,0,0,1,32,67.24,24.91,24.91,0,0,1,25.07,50C25.07,49.54,25.08,49.08,25.11,48.62Z"/><path class="cls-7" d="M42.94,30.34a4.17,4.17,0,1,0,4.17-4.17A4.17,4.17,0,0,0,42.94,30.34Zm2.5,0A1.67,1.67,0,1,1,47.11,32,1.67,1.67,0,0,1,45.44,30.34Z"/><path class="cls-8" d="M50.35,37.9a25,25,0,0,1,5.51-12.23,25,25,0,0,1,15,38.21c0-.46,0-.92,0-1.38A25,25,0,0,0,50.35,37.9Z"/><path class="cls-9" d="M31.36,33.42a25.07,25.07,0,0,1,24.5-7.75A25,25,0,0,0,50.35,37.9a22,22,0,0,0-3.06-.36c-.46,0-.92,0-1.39,0A25,25,0,0,0,25.11,48.62,24.9,24.9,0,0,1,31.36,33.42Z"/><path class="cls-10" d="M32,67.24a25,25,0,0,0,18.4-24.11,26.58,26.58,0,0,0-.22-3.36,25,25,0,0,1-9.22,33.5A24.89,24.89,0,0,1,32,67.24Z"/><path class="cls-11" d="M25.11,48.62A25,25,0,0,1,45.9,37.5c.47,0,.93,0,1.39,0s1.05.07,1.57.13l.94.13.55.1c-.09.6-.16,1.22-.21,1.85h0a26.58,26.58,0,0,1,.22,3.36A25,25,0,0,1,32,67.24,24.91,24.91,0,0,1,25.07,50C25.07,49.54,25.08,49.08,25.11,48.62Z"/><path class="cls-12" d="M42.94,30.34a4.17,4.17,0,1,0,4.17-4.17A4.17,4.17,0,0,0,42.94,30.34Zm2.5,0A1.67,1.67,0,1,1,47.11,32,1.67,1.67,0,0,1,45.44,30.34Z"/><path class="cls-13" d="M70.87,63.88A25,25,0,0,0,50.15,39.77h0q.07-.95.21-1.86A25,25,0,0,1,70.9,62.5q0,.69,0,1.38Z"/><path class="cls-14" d="M47.11,26.57a3.82,3.82,0,1,1-2.7,1.12,3.8,3.8,0,0,1,2.7-1.12m0,5.84a2,2,0,1,0-2-2,2,2,0,0,0,2,2m0-6.19a4.17,4.17,0,1,0,4.16,4.17,4.17,4.17,0,0,0-4.16-4.17Zm0,5.84a1.67,1.67,0,1,1,1.66-1.67,1.67,1.67,0,0,1-1.66,1.67Z"/><path class="cls-14" d="M52.58,38.39a20.72,20.72,0,0,1,2.16.67c.71.25,1.41.55,2.1.87l.26.12.25.12.26.13.25.13.25.14.25.13.24.14.25.15c.65.38,1.29.8,1.91,1.24s1.21.91,1.78,1.41a22.3,22.3,0,0,1,1.65,1.57c.53.55,1,1.12,1.51,1.71s.92,1.21,1.34,1.85.81,1.29,1.17,2,.68,1.36,1,2.06.56,1.42.79,2.14.42,1.46.58,2.21.29,1.49.38,2.25.15,1.51.17,2.27v1.71l0,.57-.39-.13a25.42,25.42,0,0,0,1.51-2.57l.17-.33.09-.17c0-.05.05-.11.07-.17l.32-.68.28-.68c.05-.12.1-.24.14-.35l.13-.35a25.55,25.55,0,0,0,.88-2.86,26.6,26.6,0,0,0,.52-2.94l.08-.75.05-.74v-.38l0-.37v-.94c0-.06,0-.12,0-.19v-.93l0-.19c0-.5-.08-1-.14-1.49l0-.37v-.1l0-.09,0-.18c0-.25-.08-.5-.12-.74s-.05-.25-.08-.37l0-.18,0-.19-.08-.36-.09-.37q-.19-.72-.42-1.44l-.06-.18L73.67,42l-.12-.36c-.09-.23-.17-.47-.27-.7s-.19-.46-.29-.69l-.15-.35-.08-.17-.08-.17c-.21-.45-.44-.89-.68-1.33a24.52,24.52,0,0,0-1.6-2.53c-.29-.41-.6-.8-.92-1.19s-.64-.76-1-1.12-.69-.73-1-1.07-.73-.68-1.11-1A26.16,26.16,0,0,0,64,29.5l-.15-.1-.16-.1-.31-.21L63,28.9a3.37,3.37,0,0,0-.32-.19l-.16-.1-.16-.09-.33-.18L61.4,28l-.67-.33-.34-.16-.17-.07-.17-.08c-.45-.2-.92-.39-1.38-.56l-.35-.13L58,26.53a3.59,3.59,0,0,0-.35-.12l-.18-.06-.18-.05-.35-.11-.36-.1L56.36,26,56.18,26l-.37-.09.19-.06-.53.65-.51.67-.49.69-.23.35-.12.18-.06.08-.06.09-.22.36-.11.18a1.74,1.74,0,0,1-.11.18l-.21.37-.1.18a1.62,1.62,0,0,0-.1.18l-.2.38-.1.18c0,.07-.07.13-.1.19l-.18.38-.09.19a.82.82,0,0,0-.09.19l-.18.39-.08.19-.09.19-.16.39-.08.2-.07.19-.15.4-.07.2c0,.06,0,.13-.08.2l-.13.4-.07.2-.06.2-.12.4-.06.21,0,.1v.05l0,0-.21.82-.18.83-.16.81A21,21,0,0,1,52.58,38.39Zm-2.25-.45.13-.84.15-.83c.06-.28.12-.56.19-.83v-.11l0-.1,0-.21.11-.41.06-.2.06-.21.12-.4.07-.21.07-.2.13-.4.08-.2.07-.2.15-.4a1.67,1.67,0,0,0,.08-.2L52,31.8l.16-.4.09-.19.09-.19.18-.39.09-.19.1-.19.19-.38c0-.07.07-.13.1-.19l.1-.19.21-.37c0-.07.07-.13.1-.19l.11-.18.22-.37.06-.09.06-.09L54,28l.23-.36c.16-.23.32-.47.49-.7l.5-.69.54-.66a.18.18,0,0,1,.18-.07h0l.37.09.18.05.18.05.37.1.36.1.19.06.18.05.36.12.36.12.35.13.18.06.18.07.18.07.17.07.35.14.35.15.17.08.18.08.34.16.68.33.67.36.33.19.17.09.16.1c.43.26.86.53,1.28.81A25.21,25.21,0,0,1,66.58,31l.28.25.28.26.14.13.13.13.27.26c.36.36.7.73,1,1.11s.65.76,1,1.16.61.8.89,1.22l.21.31.11.16.1.16.21.31.2.33,0,.08,0,.08.1.16.19.33.18.33.18.33c.24.44.46.89.67,1.35l.08.17.08.18.15.34.28.7.27.71.12.35.06.18.06.18c.16.48.29,1,.42,1.45l.09.36.09.37,0,.19,0,.18c0,.12.05.25.08.37s.1.49.14.74l0,.19v.09l0,.09.05.38c0,.12,0,.25,0,.37s0,.25,0,.38l0,.37,0,.38,0,.19v.18l0,.38,0,.38c0,.06,0,.12,0,.19v1.7l0,.75-.06.76a27.16,27.16,0,0,1-.47,3l-.18.74c0,.13-.06.25-.09.37l-.11.36,0,.19,0,.09,0,.09-.12.36-.11.36,0,.09,0,.09-.07.18-.13.35c0,.12-.08.24-.13.36l-.29.7-.31.69c0,.06,0,.12-.07.17l-.09.17-.17.34a26.31,26.31,0,0,1-1.51,2.63.22.22,0,0,1-.4-.13h0l0-.56s0-.09,0-.14v-1a2.53,2.53,0,0,0,0-.28v-.28c0-.75-.09-1.49-.18-2.23s-.22-1.48-.39-2.21-.35-1.45-.58-2.16S69,53.66,68.74,53s-.6-1.36-.95-2-.73-1.31-1.13-1.93-.84-1.24-1.3-1.83-1-1.15-1.46-1.7-1-1.07-1.61-1.57-1.13-1-1.73-1.42-1.22-.87-1.86-1.26l-.24-.15L58.22,41,58,40.81l-.24-.14-.25-.13-.25-.13L57,40.27l-.25-.12c-.67-.34-1.36-.64-2-.92s-1.42-.51-2.14-.72A20.58,20.58,0,0,0,50.35,38S50.33,38,50.33,37.94Z"/><path class="cls-14" d="M31.38,33.48l-.34.4-.33.4-.33.41-.31.42-.31.42-.3.43-.14.22a1.64,1.64,0,0,0-.14.22l-.14.22-.14.22-.14.22-.13.23-.13.23-.13.22-.12.23-.12.23-.12.24-.12.23-.12.23-.05.12-.06.12-.11.24-.05.12-.05.12c-.14.31-.28.63-.4,1-.26.65-.48,1.3-.68,2-.1.33-.19.67-.28,1s-.16.68-.23,1l-.05.26a2.21,2.21,0,0,0,0,.25l-.05.26a2.34,2.34,0,0,0,0,.26l-.05.25a2.34,2.34,0,0,1,0,.26l0,.26c0,.08,0,.17,0,.25l-.06.52c0,.17,0,.34-.05.52l0,.51,0,.52-.4-.13.25-.38c.09-.13.17-.26.26-.38s.36-.49.55-.73l.28-.36.29-.36.6-.69c.1-.11.21-.22.31-.34l.32-.33.32-.32.33-.33c.22-.21.44-.42.67-.62l.34-.3.35-.29L30,43l0,0,.05,0,.09-.07.36-.29.09-.07.09-.07.18-.13.37-.27.38-.26.19-.13.09-.07.1-.06.39-.24.09-.07.1-.06.19-.11.4-.24.4-.22.2-.12,0,0,.05,0,.1,0,.4-.22.41-.2.42-.2.41-.18.42-.19c.29-.11.57-.23.86-.33l.42-.16.44-.15c.57-.2,1.16-.37,1.75-.52l.22-.06.22,0,.23-.05.11,0h.11l.45-.09.22,0,.23,0,.9-.14.45-.06.46,0,.22,0,.23,0,.46,0,.22,0h2.51l.46,0h.23l.22,0,.46,0,.45,0,.23,0,.11,0H49l.45.07.45.07.45.08-.11.08.15-.84.18-.83c.06-.28.13-.55.2-.83v0l0-.05,0-.1,0-.21.12-.41.06-.2.07-.2.13-.41c0-.06,0-.13.07-.2l.07-.2.14-.4c0-.06,0-.13.08-.2l.07-.19.16-.4L52,32l.09-.19.17-.39a1.08,1.08,0,0,1,.08-.19l.1-.2.18-.38.09-.19.1-.19L53,29.9c0-.06.07-.12.1-.19l.11-.18.2-.38.11-.18.11-.18.22-.37a.41.41,0,0,1,.05-.09l.06-.09.11-.18.23-.36.48-.7.51-.69.52-.67.07.2-.41-.08L55,25.68l-.42-.08-.2,0-.21,0-.41-.06-.21,0-.21,0-.21,0-.21,0-.41,0-.21,0H52.1l-.42,0-.42,0H49.17l-.42,0-.41,0-.21,0h-.21l-.42.05-.2,0-.21,0-.42.05-.41.07-.21,0-.2,0-.41.07-.11,0-.1,0-.21.05-.2,0-.2,0-.41.09L44,26l-.2.05-.4.11-.41.11-.2.06-.2.06-.4.12-.39.13-.79.29-.1,0-.1,0-.19.08-.2.07-.19.08-.77.34-.38.17-.38.18-.19.1-.18.09-.38.2-.36.2-.19.1-.18.11-.36.21-.36.22-.7.46-.18.12-.17.12-.17.12-.09.06-.08.07-.34.25-.08.06-.08.07-.17.13-.17.13-.16.13-.32.27-.32.27-.32.28-.3.29-.16.14-.15.15-.3.3-.29.3-.14.15-.15.16-.28.31Zm0,0,.28-.31.14-.16.15-.15.29-.31.3-.29.15-.15.15-.15.31-.29.31-.28.31-.29.32-.27.16-.14.17-.13c.21-.18.44-.35.66-.53l.08-.06a.27.27,0,0,0,.08-.07l.17-.12.17-.13.17-.12c.23-.16.46-.33.7-.48l.35-.24.36-.23.18-.11.18-.11.36-.21.37-.21.18-.11.19-.1.38-.19.38-.19.76-.37.2-.08.19-.08.19-.09.1,0,.1,0,.79-.31.4-.14.4-.13.21-.07.2-.06.41-.13.41-.11.2-.05.21-.05.41-.1.21,0,.2,0,.21-.05.11,0,.1,0,.42-.08.21,0,.21,0,.42-.07L47,25l.21,0,.21,0,.43,0h.21l.21,0h.42l.43,0h1.69l.43,0,.42,0,.43,0,.21,0,.21,0,.42,0,.21,0,.21,0,.21,0,.21,0,.42.08.21,0,.2,0,.42.08.41.09.42.1,0,0a.12.12,0,0,1,0,.17h0l-.54.65-.51.67-.49.69-.47.7-.22.36-.11.18a1.74,1.74,0,0,0-.11.18l-.21.37-.1.19a1.74,1.74,0,0,0-.11.18l-.19.38-.1.18c0,.07-.07.13-.1.19l-.18.38-.09.19-.09.2-.17.38-.08.2a1.54,1.54,0,0,0-.08.19l-.16.4-.08.19c0,.07,0,.13-.07.2l-.14.4-.07.2c0,.06,0,.13-.07.2l-.13.4-.06.2-.06.21-.11.4-.06.21,0,.1v.1l-.1.41-.09.42c-.06.27-.11.55-.17.83l-.13.83a.1.1,0,0,1-.11.08h0L49.89,38l-.45-.06L49,37.85h-.23l-.22,0-.45,0c-.15,0-.3,0-.45,0l-.23,0h-2a3.39,3.39,0,0,0-.45,0l-.45,0-.22,0-.23,0-.45,0-.22,0-.22,0-.45,0-.45.07c-.29,0-.59.1-.88.16l-.22,0-.23,0-.44.09h0l0,0-.11,0-.22.06-.22,0-.22.06c-.58.16-1.15.33-1.72.53l-.42.14-.42.17c-.28.1-.56.22-.83.34s-.28.12-.42.18l-.4.18-.41.2c-.13.07-.27.13-.4.21l-.4.21-.1.05,0,0,0,0-.2.12-.39.22-.38.23-.19.12-.1.06-.09.06-.38.25-.09.06-.1.06-.18.13-.37.26-.36.26-.18.14-.09.06-.09.07-.35.28-.09.07,0,0,0,0-.17.15-.34.29-.34.29c-.23.2-.44.41-.66.61l-.32.32-.32.31-.31.33c-.1.11-.21.22-.3.33s-.41.44-.6.68l-.29.34-.27.35-.55.72-.26.36-.26.37h0a.22.22,0,0,1-.4-.14l0-.53c0-.17,0-.35.05-.53s0-.34.06-.52,0-.35.07-.52,0-.18,0-.26l0-.26c0-.09,0-.18,0-.26l.05-.26a2,2,0,0,1,.05-.26l.05-.26.06-.26.06-.25.27-1c.1-.34.2-.68.31-1,.23-.66.48-1.32.76-2,.14-.33.28-.64.43-1l.48-.94.12-.23.13-.23.13-.23.13-.22.14-.23.13-.22.14-.23.14-.22.14-.22.15-.22.29-.43.31-.43.31-.42c.1-.14.21-.28.32-.41l.33-.41.33-.4.35-.4Z"/><path class="cls-14" d="M32.47,67.75l.5.47.51.44.52.44.53.42.54.41.55.39.57.38.57.36.58.35.59.33.59.32.61.3.61.28.62.27.63.25h-.16c.68-.42,1.34-.86,2-1.33s1.25-1,1.84-1.51,1.16-1.09,1.7-1.67l.39-.44.1-.11.1-.12.19-.22.19-.23.09-.12.1-.11.36-.47.36-.48.09-.12.08-.12.17-.25.17-.24.08-.12.08-.13c.11-.17.22-.33.32-.5q.63-1,1.17-2.07c.35-.71.67-1.44,1-2.18s.53-1.49.75-2.25l.15-.58,0-.14,0-.15.07-.29.06-.29,0-.14a.8.8,0,0,0,0-.15l.12-.58c0-.1,0-.2,0-.3l0-.29.05-.3,0-.29c0-.2.05-.39.08-.59l0-.59c0-.2,0-.4,0-.6l0-.29V51c0-.1,0-.2,0-.3v-.6l0-.59a.76.76,0,0,0,0-.15v-.15l0-.3,0-.29c0-.1,0-.2,0-.3l0-.29c0-.1,0-.2,0-.3l-.1-.59a2.93,2.93,0,0,0-.05-.29l-.06-.3-.06-.29L52.39,46l-.06-.29,0-.15,0-.14-.15-.58c-.05-.19-.11-.38-.17-.57s-.12-.38-.18-.57l-.09-.28,0-.07,0-.08-.06-.14-.1-.28-.05-.14a.58.58,0,0,1,0-.14L51.12,42c-.31-.74-.66-1.46-1-2.16l.13,0,.06.56,0,.28,0,.28,0,.56,0,.56,0,.29v1.4c0,.19,0,.38,0,.57,0,.75-.09,1.5-.18,2.24S50,48,49.86,48.78s-.35,1.46-.57,2.18-.48,1.43-.77,2.13a23.36,23.36,0,0,1-2.13,4c-.42.63-.86,1.24-1.34,1.83s-1,1.16-1.49,1.7-1.08,1.06-1.65,1.55l-.22.18-.21.19-.45.35-.22.17-.22.17-.23.17-.12.08-.11.09c-.62.43-1.25.84-1.9,1.22l-.12.07-.13.07-.24.14-.5.27-.51.25-.25.12-.26.12a22.3,22.3,0,0,1-2.09.85c-.35.13-.71.24-1.07.35l-.27.08-.27.07-.5.14ZM32,67.3a0,0,0,0,1,0,0h0l.26-.08.27-.08.27-.09.26-.09c.36-.13.71-.25,1-.39.7-.28,1.38-.58,2.05-.91s1.32-.7,2-1.09,1.25-.8,1.85-1.25l.11-.08.11-.08.22-.17.44-.35.43-.35.21-.19.21-.18c.56-.49,1.1-1,1.61-1.55s1-1.1,1.46-1.68.9-1.18,1.31-1.8.8-1.26,1.16-1.91.68-1.32,1-2,.58-1.37.82-2.08.44-1.42.62-2.14.31-1.46.42-2.2.18-1.48.22-2.23c0-.19,0-.37,0-.56V42.06l0-.56,0-.56,0-.28,0-.28-.06-.55h0a.06.06,0,0,1,0-.07.08.08,0,0,1,.1,0c.38.71.74,1.43,1.06,2.16l.24.56.05.14.06.14.11.28.05.14,0,.07,0,.07.1.29c.07.19.14.37.2.57l.18.57.17.58,0,.15,0,.14.07.29.08.3.06.29.07.3.06.29.11.59c0,.1,0,.2.05.3l0,.3c0,.1,0,.2,0,.3l0,.3,0,.3v.15s0,.1,0,.15l.05.6v.3l0,.3c0,.1,0,.2,0,.3v2.12c0,.2,0,.4,0,.6l0,.61c0,.2-.05.4-.07.6s0,.2,0,.3l0,.3,0,.3c0,.1,0,.2-.05.3l-.11.59,0,.15,0,.15-.06.3-.07.29,0,.15,0,.15-.15.58c-.11.39-.21.78-.34,1.16s-.26.77-.4,1.15c-.07.19-.15.37-.22.56l-.06.14,0,.07,0,.07-.12.28-.12.28-.06.14-.07.13-.26.55-.27.54-.07.13-.07.14-.15.26-.15.27-.07.13-.08.13-.32.52c-.43.68-.89,1.35-1.38,2s-1,1.25-1.57,1.84-1.13,1.15-1.74,1.69-1.24,1-1.89,1.5-1.34.91-2,1.32h0a.16.16,0,0,1-.15,0l-.63-.26-.62-.29-.62-.3-.61-.31L37.79,72l-.59-.35-.58-.36-.57-.39-.55-.39L35,70.08l-.53-.42-.52-.44-.5-.46-.5-.47-.48-.48-.47-.5Z"/><path class="cls-14" d="M25.12,49.31V50h0v.52c0,.11,0,.21,0,.32l0,.32v.31l0,.32.06.63c0,.21,0,.42.08.63l.09.63.12.63.06.31,0,.15v.08l0,.08.07.31c0,.1,0,.21.07.31l.08.31,0,.15,0,.15c.06.21.11.41.17.61l.09.31,0,.07,0,.08.05.15.1.3.1.3.11.3.11.29.11.3.12.29c.08.2.16.39.25.59l.06.14a1,1,0,0,0,.07.15l.13.28a2.59,2.59,0,0,0,.14.29l.13.28,0,.07,0,.07.07.15.14.28c.11.18.21.37.31.55l.16.27.08.14,0,.07,0,.07.16.27.08.13.09.14.17.26.09.13.08.14.18.26.05.06,0,.07.09.13.19.25.18.26c.07.08.13.17.19.25l.2.25.39.49.1.13.11.12.2.24.21.23.21.24.43.46-.23-.06c.71-.2,1.42-.43,2.11-.69s1.38-.55,2-.87,1.33-.67,2-1.05,1.26-.79,1.86-1.22,1.19-.89,1.75-1.38,1.1-1,1.62-1.53,1-1.09,1.48-1.67.91-1.17,1.32-1.79c.11-.15.21-.31.31-.46l.15-.24.15-.24c.09-.16.19-.32.29-.47l.27-.49c.36-.65.69-1.32,1-2s.58-1.38.82-2.08.44-1.43.61-2.16a24.49,24.49,0,0,0,.62-4.43c0-.19,0-.37,0-.56v-1.4l0-.28,0-.56c0-.19,0-.37-.05-.56l0-.28,0-.28-.07-.55h0l0,.05h0a.11.11,0,0,1,0-.07l.08-.94s0-.08,0-.12l0-.12,0-.23,0-.47.09.12L49.89,38l-.11,0h-.11l-.23,0L49,37.86h-.22l-.22,0-.45,0-.45,0h-.46l-.44,0H45.39l-.45,0-.45,0h-.22l-.23,0-.45,0-.22,0-.22,0L42.7,38l-.45.06c-.29,0-.59.1-.88.16l-.22,0-.22,0-.44.1h-.11l-.11,0-.22.05-.22,0-.22.06-.43.12-.22.06-.21.06-.43.14-.11,0-.11,0-.21.08-.43.14-.42.16c-.28.1-.56.22-.83.33l-.42.18-.41.19-.4.19-.41.2-.4.21-.1,0,0,0-.05,0-.19.11-.4.22-.38.23c-.52.31-1,.64-1.52,1l-.36.27-.18.13-.09.07-.09.06-.36.28-.09.07,0,0-.05,0-.17.14-.35.29-.34.29-.34.3-.33.31c-.12.1-.22.2-.33.31l-.33.31-.31.33-.31.32c-.2.23-.41.44-.61.68l-.29.34-.29.35c-.19.23-.37.47-.56.71s-.18.24-.26.37l-.27.36Zm0-.65h0l.25-.38c.08-.13.16-.26.25-.38s.35-.5.54-.74l.27-.36.28-.36.59-.69.3-.34.31-.34.32-.32.32-.33.66-.63.34-.3.34-.3L30,43l0,0,.05,0,.09-.07.35-.29.09-.07.09-.07.18-.13.37-.28.37-.26.19-.13L32,41.6l.1-.06.38-.25.09-.06.1-.07.2-.12.38-.23.4-.23.2-.12.05,0,0,0,.1-.06.4-.21.41-.21.41-.2.42-.19c.13-.06.27-.13.41-.18L36.9,39l.43-.16.43-.15c.57-.2,1.16-.37,1.75-.53l.22-.06.22,0,.23-.06.11,0,.05,0h.06l.45-.09.22,0,.23,0,.9-.14.45-.06.46,0,.22,0,.23,0,.46,0h.45l.46,0H46.3l.45,0,.46,0h.23l.22,0,.46,0,.45,0,.23,0h.11l.11,0,.45.06.23,0h.11l.12,0,.44.08h0a.11.11,0,0,1,.09.12l-.07.46,0,.24,0,.11s0,.08,0,.12l-.09.93,0-.07h0l0,.06h0l.06.56,0,.28,0,.28,0,.56,0,.56,0,.28v1.41c0,.19,0,.38,0,.57a25.81,25.81,0,0,1-.58,4.46c-.16.74-.35,1.46-.58,2.18s-.48,1.43-.77,2.12-.61,1.38-1,2l-.27.5c-.1.16-.19.32-.28.49l-.15.24c0,.08-.09.16-.15.24s-.19.32-.3.48c-.41.63-.85,1.25-1.32,1.84l-.18.22-.18.22-.36.43-.19.21L44,60.2l-.19.21-.1.11-.09.1c-.52.55-1.07,1.07-1.64,1.57l-.21.19-.22.18-.43.36-.45.35-.23.17-.11.09-.11.08c-.61.44-1.24.86-1.89,1.25l-.12.08L38,65l-.24.14-.25.14-.25.14-.5.26-.25.13-.26.12a22.6,22.6,0,0,1-2.09.89q-1.06.39-2.16.69h0a.22.22,0,0,1-.23-.06l-.22-.24c-.07-.08-.15-.15-.22-.24l-.21-.24-.21-.24-.21-.25-.1-.12-.1-.13c-.14-.16-.27-.33-.4-.5l-.2-.26L29.74,65l-.18-.26-.19-.26-.09-.13-.05-.07,0-.07L29,63.92l-.08-.13-.09-.14-.17-.27-.09-.14-.08-.13-.16-.28,0-.07,0-.07-.08-.14L28,62.27l-.3-.57-.14-.29-.07-.14,0-.07,0-.08-.14-.29c0-.09-.09-.19-.13-.29L27,60.25,27,60.1,26.91,60c-.08-.2-.16-.39-.24-.6l-.11-.3a2.65,2.65,0,0,1-.11-.3l-.11-.3-.1-.3c0-.11-.07-.21-.1-.31l-.09-.31L26,57.38l0-.08,0-.08-.09-.3c-.06-.21-.11-.42-.16-.63l0-.15,0-.16-.07-.31c0-.1-.05-.21-.07-.31L25.44,55V55l0-.08,0-.16-.05-.31-.09-.63-.08-.64-.06-.64c0-.21,0-.42,0-.64l0-.32v-1.6l0-.31c0-.11,0-.22,0-.32l0-.64Z"/><path class="cls-14" d="M70.85,63.92h0v-.57s0-.09,0-.14v-1c0-.1,0-.19,0-.29l0-.28c0-.75-.11-1.5-.22-2.24l0-.28,0-.28c0-.09,0-.18-.05-.27l0-.28c0-.09,0-.18,0-.28l-.06-.27a2.8,2.8,0,0,0-.06-.28l-.06-.27q-.25-1.09-.6-2.16c-.24-.71-.5-1.41-.8-2.1a22.1,22.1,0,0,0-1-2c-.35-.66-.74-1.3-1.15-1.92s-.85-1.23-1.31-1.81-1-1.15-1.47-1.69a25.3,25.3,0,0,0-3.35-3,20.83,20.83,0,0,0-1.86-1.25c-.63-.39-1.29-.75-2-1.08l-.25-.13L56.19,40l-.51-.24-.51-.22L55,39.47l-.13,0-.27-.11-.13-.05-.13,0-.26-.09-.27-.1-.26-.09-.27-.09-.26-.08-.54-.17c-.72-.2-1.45-.38-2.19-.52l.15-.11-.07.47,0,.23,0,.11s0,.08,0,.12l-.05.47,0,.46,0-.08h0l0,0q1.06.2,2.1.48c.7.19,1.39.41,2.06.65l.51.19.5.2.5.21.49.22.49.23.48.23.48.25.48.26c.63.35,1.24.73,1.84,1.13s1.19.82,1.75,1.27S63,46,63.48,46.47s1,1,1.5,1.56l.18.21.17.21.17.21.09.1.08.11c.23.28.45.57.66.86.42.59.82,1.2,1.19,1.82s.71,1.26,1,1.91c.08.17.16.33.23.49s.15.33.22.5.14.33.2.5.14.34.2.51l.18.51c.06.17.12.34.17.51s.11.35.16.52l.15.52c.19.7.35,1.4.47,2.11s.22,1.43.29,2.14l0,.27a2.45,2.45,0,0,0,0,.27c0,.18,0,.36,0,.54s0,.36,0,.54v.54Zm0,0,0-.54,0-.53c0-.18,0-.36,0-.54l0-.26,0-.27c-.08-.71-.21-1.41-.35-2.11s-.33-1.39-.53-2.08c0-.17-.11-.34-.16-.51s-.12-.34-.17-.51l-.18-.5c-.06-.17-.13-.33-.19-.5s-.14-.33-.2-.49-.14-.33-.22-.5-.14-.32-.22-.48-.15-.32-.23-.48c-.31-.64-.66-1.27-1-1.88S66.42,50.55,66,50c-.21-.29-.42-.57-.64-.85s-.45-.56-.68-.83c-.46-.54-.94-1.07-1.44-1.57s-1-1-1.57-1.46S60.56,44.36,60,44a21.32,21.32,0,0,0-1.8-1.17l-.47-.26-.47-.25L56.76,42l-.49-.23-.49-.22-.49-.21-.5-.19-.5-.19a25,25,0,0,0-4.16-1.06l0,0h0a.09.09,0,0,1,0-.08h0l.08-.93s0-.08,0-.12l0-.12,0-.23,0-.47h0a.13.13,0,0,1,.14-.1h0c.74.13,1.49.28,2.22.48.18.05.37.09.55.15l.27.08.27.08.27.09a2.29,2.29,0,0,1,.28.09l.26.09.14,0,.13,0c.36.13.71.26,1.06.41l.53.23.26.12.25.12a21.46,21.46,0,0,1,2,1.07c.66.39,1.29.81,1.91,1.25s1.21.92,1.78,1.42a22.43,22.43,0,0,1,1.65,1.58c.53.56,1,1.13,1.49,1.73s.92,1.22,1.33,1.86a22.53,22.53,0,0,1,1.15,2c.35.67.67,1.36,1,2.06s.54,1.42.76,2.15a21,21,0,0,1,.56,2.21l.06.27c0,.1,0,.19,0,.28l0,.28c0,.1,0,.19,0,.28l0,.29,0,.28,0,.28,0,.28A21.44,21.44,0,0,1,71,61.67V62c0,.09,0,.19,0,.28v.29c0,.09,0,.19,0,.28v.42a.76.76,0,0,0,0,.15l0,.56h0Z"/><path class="cls-14" d="M70.82,37.8c-.1.44-.17.89-.25,1.33,0,.22-.07.44-.1.67l0,.16v.09a.22.22,0,0,0,0,.08l0,.34,0,.33V41l0,.17c0,.22,0,.45,0,.67v.08a.28.28,0,0,1,0,.09v.5l0,.33v1h0v0l0,.67v.17a.86.86,0,0,0,0,.16l0,.34c0,.22,0,.45,0,.67l.06.67.09.66,0,.17a1,1,0,0,0,0,.17l.06.33c0,.22.07.44.11.66l.13.66.16.65c0,.22.11.43.17.65l.08.32,0,.09a.31.31,0,0,0,0,.08l0,.16c.07.21.13.42.2.64l.22.63,0,.16.07.16L72,53l.12.31c0,.11.09.21.13.31l.13.31c0,.11.09.21.14.31l.28.61,0,.08a.25.25,0,0,1,0,.07l.08.15.15.3.08.16a1,1,0,0,0,.07.15l.16.29.16.3a1.09,1.09,0,0,1,.08.15l.09.14.34.58-.22,0c.13-.43.28-.85.38-1.29.06-.22.12-.44.17-.66l.14-.66.12-.66,0-.17v-.08s0-.06,0-.09l0-.33,0-.34,0-.16v-.17l.06-.68V51.3L75,51V50h0v0l0-.68V49.1c0-.05,0-.11,0-.16l0-.34c0-.22,0-.45-.07-.67l-.07-.67-.1-.67c0-.22-.07-.44-.11-.66l-.06-.33-.06-.33c0-.22-.09-.44-.14-.66L74.13,44c0-.22-.12-.44-.17-.65L73.87,43l0-.08,0-.08,0-.16c-.06-.22-.13-.43-.2-.64l-.21-.64-.06-.16-.06-.16-.12-.31L73,40.43l-.13-.31-.12-.31c0-.1-.09-.21-.14-.31l-.28-.62,0-.07a.3.3,0,0,0,0-.08l-.07-.15-.15-.3L72,38.13,71.89,38l-.16-.29-.15-.3a1.09,1.09,0,0,1-.08-.15l-.09-.15-.3-.54C71,37,70.9,37.38,70.82,37.8Zm.27-1.34h0l.38.56.1.14.09.15.18.29.18.29.08.14.09.15.17.3.08.15,0,.07,0,.08.31.6c.06.1.1.21.15.31l.14.31.15.31.13.31.13.32.07.16.05.16.24.64c.08.21.15.43.22.65l0,.16,0,.08,0,.08.1.33.18.66c0,.22.1.44.16.66s.09.45.13.67.08.45.12.68l0,.33c0,.12,0,.23,0,.34s0,.46.08.68l0,.68c0,.23,0,.46,0,.68V50h0v.28l0,.34V51l0,.34,0,.34V52c0,.22,0,.45-.07.67l0,.17L75,53l0,.34,0,.33a.28.28,0,0,1,0,.09v.08l0,.17-.11.67c-.09.45-.17.89-.27,1.33s-.22.88-.33,1.33l0,.07a.13.13,0,0,1-.17,0h0l-.38-.58-.09-.14-.09-.14-.17-.3L73,55.92a1.09,1.09,0,0,1-.08-.15l-.09-.15-.16-.29-.08-.16,0-.07,0-.08-.31-.61L72,54.1l-.14-.31c0-.1-.09-.2-.14-.31l-.13-.31-.13-.32-.06-.16-.06-.16-.24-.64-.21-.65,0-.16,0-.09,0-.08-.1-.33c-.06-.22-.13-.43-.18-.66s-.11-.44-.16-.66l-.14-.67,0-.17,0-.17,0-.33c0-.23-.08-.45-.1-.68l-.09-.68-.05-.68c0-.23,0-.46,0-.69l0-.34c0-.05,0-.11,0-.17v-.9h0v-.61c0-.12,0-.23,0-.34l0-.35,0-.34V42a.25.25,0,0,0,0-.08v-.09c0-.23,0-.45.08-.68l0-.17,0-.17,0-.33.06-.34a.19.19,0,0,1,0-.08l0-.09,0-.17c0-.22.09-.44.13-.66s.1-.45.16-.67.11-.44.17-.65c.12-.44.27-.87.41-1.3Z"/></g></g></svg>